<svg width="73" height="75" fill="none" xmlns="http://www.w3.org/2000/svg"><path fill-rule="evenodd" clip-rule="evenodd" d="M61.957 0v5.435c3 0 5.433 2.432 5.434 5.433a5.435 5.435 0 015.435-5.433A5.435 5.435 0 0167.391.012a5.435 5.435 0 01-5.434 5.423V0zm5.434 0h5.435-5.435zM10.326 29.348H0v10.326c5.703 0 10.325 4.623 10.325 10.326h.001c0-5.703 4.623-10.326 10.326-10.326V50 29.348v10.326c-5.684 0-10.296-4.594-10.326-10.271-.03 5.677-4.641 10.27-10.326 10.27V29.349h10.326z" fill="#EB5555"/><path d="M2.174 17.435c0-6.628 5.372-12 12-12H52.13c6.628 0 12 5.372 12 12v8.652H2.174v-8.652z" fill="#FFBA4A"/><path d="M28.26 17.435c0-6.628 5.373-12 12-12h11.87c6.628 0 12 5.372 12 12V64.13H28.26V17.435z" fill="#FFBA4A"/><path d="M2.174 17.435c0-6.628 5.372-12 12-12h2.087c6.627 0 12 5.372 12 12v8.652H2.174v-8.652z" fill="#C99035"/><path fill="#993280" d="M36.956 20.652h33.696v4.891H36.956z"/><path fill="#A03C7D" d="M36.956 30.435h33.696v4.891H36.956zm0 9.782h22.826v4.891H36.956z"/><path d="M39.13 75V64.13h8.696V75l-4.348-4.348L39.13 75z" fill="#993280"/><circle cx="43.478" cy="59.782" r="6.522" fill="#EB5555"/></svg>