<svg width="91" height="75" fill="none" xmlns="http://www.w3.org/2000/svg"><path d="M11.638 54.086c0-7.732 6.268-14 14-14h44.414c7.731 0 14 6.268 14 14V75H11.638V54.086z" fill="#FFBA4A"/><path fill-rule="evenodd" clip-rule="evenodd" d="M90.52 29.741H78.88v11.64-5.82a5.82 5.82 0 015.82 5.798 5.82 5.82 0 015.82-5.797 5.82 5.82 0 01-5.82-5.82h5.82zm-5.82 0a5.82 5.82 0 01-5.82 5.82v-5.82h5.82zM12.286 11.638c0 6.785 5.5 12.286 12.287 12.286V11.638 36.21 23.924c-6.786 0-12.287 5.501-12.287 12.287 0-6.785-5.5-12.286-12.286-12.287 6.785 0 12.286-5.5 12.286-12.286H0h12.286z" fill="#EB5555"/><circle cx="48.492" cy="17.457" r="17.457" fill="#FFBA4A"/><path fill="#A03C7D" d="M27.155 62.069h41.379V75H27.155z"/><path fill="#A03C7D" d="M62.069 40.086h6.466V75h-6.466zm-34.914 0h6.466V75h-6.466z"/></svg>