<svg width="34" height="34" fill="none" xmlns="http://www.w3.org/2000/svg"><path d="M20.464 4c-1.54-2.667-5.388-2.667-6.928 0L4.01 20.5c-1.54 2.667.385 6 3.464 6h19.052c3.08 0 5.004-3.333 3.464-6L20.464 4z" stroke="#FFC464" stroke-width="2"/><path d="M15.832 9.8h2.976l-.496 7.312h-1.984L15.832 9.8zm1.488 11.328c-.437 0-.805-.139-1.104-.416a1.418 1.418 0 01-.432-1.04c0-.405.144-.741.432-1.008.288-.277.656-.416 1.104-.416.448 0 .816.139 1.104.416.288.267.432.603.432 1.008s-.15.752-.448 1.04c-.288.277-.65.416-1.088.416z" fill="#FFC464"/></svg>