<svg width="100" height="100" fill="none" xmlns="http://www.w3.org/2000/svg"><path opacity=".1" d="M50 97.61c0 1.32 1.07 2.395 2.388 2.332A50 50 0 1025.567 6.376c-1.151.645-1.49 2.124-.79 3.243.699 1.12 2.17 1.454 3.324.815a45.222 45.222 0 1124.287 84.724C51.071 95.228 50 96.29 50 97.61z" fill="#2F2F2F"/><path d="M50 2.38c0-1.315-1.067-2.386-2.38-2.324A50 50 0 1074.44 93.62c1.148-.643 1.484-2.117.788-3.232-.697-1.115-2.163-1.449-3.313-.812A45.238 45.238 0 1147.62 4.824C48.933 4.754 50 3.695 50 2.38z" fill="#FFC464"/></svg>